<svg width="16" height="13" viewBox="0 0 16 13" fill="none" xmlns="http://www.w3.org/2000/svg">
<path fill-rule="evenodd" clip-rule="evenodd" d="M0 1.47832C0 0.815579 0.488417 0.27832 1.09091 0.27832H14.9091C15.5116 0.27832 16 0.815579 16 1.47832C16 2.14106 15.5116 2.67832 14.9091 2.67832H1.09091C0.488417 2.67832 0 2.14106 0 1.47832Z" fill="white"/>
<path fill-rule="evenodd" clip-rule="evenodd" d="M0 6.27812C0 5.61538 0.488417 5.07812 1.09091 5.07812H14.9091C15.5116 5.07812 16 5.61538 16 6.27812C16 6.94087 15.5116 7.47812 14.9091 7.47812H1.09091C0.488417 7.47812 0 6.94087 0 6.27812Z" fill="white"/>
<path fill-rule="evenodd" clip-rule="evenodd" d="M0 11.0784C0 10.4157 0.488417 9.87842 1.09091 9.87842H14.9091C15.5116 9.87842 16 10.4157 16 11.0784C16 11.7412 15.5116 12.2784 14.9091 12.2784H1.09091C0.488417 12.2784 0 11.7412 0 11.0784Z" fill="white"/>
</svg>
